<?xml version="1.0" encoding="iso-8859-1"?>
<!-- Generator: Adobe Illustrator 18.1.1, SVG Export Plug-In . SVG Version: 6.00 Build 0)  -->
<svg version="1.1" id="Capa_1" xmlns="http://www.w3.org/2000/svg" xmlns:xlink="http://www.w3.org/1999/xlink" x="0px" y="0px"
	 viewBox="0 0 162.341 162.341" style="enable-background:new 0 0 162.341 162.341;" xml:space="preserve">
<g>
	<g>
		<path style="fill:#010002;" d="M34.802,162.341c-6.009,0-12.035-0.865-17.907-2.572l-9.857-2.864l9.857-2.864
			c34.196-9.947,60.898-51.399,65.636-101.419H50.059L102.681,0l52.622,52.622h-32.627
			C116.977,115.369,79.541,162.341,34.802,162.341z M28.501,156.022c2.094,0.233,4.201,0.352,6.301,0.352
			c42.245,0,77.563-45.981,82.158-106.956l0.209-2.757h23.736L102.687,8.443L64.469,46.661h24.53l-0.245,3.21
			C84.995,99.688,61.283,140.758,28.501,156.022z"/>
	</g>
</g>
<g>
</g>
<g>
</g>
<g>
</g>
<g>
</g>
<g>
</g>
<g>
</g>
<g>
</g>
<g>
</g>
<g>
</g>
<g>
</g>
<g>
</g>
<g>
</g>
<g>
</g>
<g>
</g>
<g>
</g>
</svg>
